<svg width="481" height="216" viewBox="0 0 481 216" fill="none" xmlns="http://www.w3.org/2000/svg">
<path d="M231.2 61.8H221.3L221 63.3H249.5L247.7 69.3H223.7L222.2 75.3H221L220.1 78.3H197.3L195.5 84.3H181.7L180.8 87.3H215.6L215.3 88.8H217.1L215.3 94.8H211.1L209.9 99.3H215.3L214.4 102.3H215.6L214.7 105.3H206.6L205.4 109.8H211.1L210.2 112.8H202.1L201.5 115.8H194.9L193.7 120.3H190.7L189.8 123.3H203.9L203 126.3H212.9L212.3 127.8H183.2L181.4 133.8H193.4L192.2 138.3H179.6L177.8 144.3H194L192.5 148.8H195.2L194.9 150.3H196.7L196.1 151.8H197.3L197 153.3H194.9L194 156.3H191L189.8 160.8H191.3L190.4 163.8H191L189.5 168.3H189.8L188.6 172.8H188.3L186.8 177.3H182.9L182 180.3H183.2L182.9 181.8H185.3L183.5 187.8H185.9L185 190.8H183.5L182.3 195.3H184.7L183.8 198.3H180.8L180.2 201.3H173.6L173 203.1L172.7 204.3H188.6C187.6 206.5 186.1 208.5 184.1 210.3H145.7C145.1 210.9 144.3 211.4 143.3 211.8H176.3C175.5 212 174.6 212.3 173.6 212.7C172.6 212.9 171.5 213 170.3 213H101.9C100.7 213 99.6 212.9 98.6 212.7C97.8 212.3 96.9 212 95.9 211.8H62.6C61.8 211.4 61 210.9 60.2 210.3H98.3C96.3 208.5 94.8 206.5 93.8 204.3H78.2C78 204.1 77.9 203.9 77.9 203.7C77.9 203.5 77.8 203.3 77.6 203.1L77 201.3H83.6L82.7 198.3H85.7L84.8 195.3H82.1L80.9 190.8H82.1L81.2 187.8H79.1L77.3 181.8H74.9L74.6 180.3H73.4L72.5 177.3H76.4L74.9 172.8H75.2L74 168.3H73.7L72.5 163.8H71.9L71 160.8H69.5L68.3 156.3H71L70.1 153.3H72.2L71.9 151.8H70.7L70.1 150.3H68.3L68 148.8H65.3L63.8 144.3H47.6L45.8 138.3H58.4L57.2 133.8H45.2L43.4 127.8H72.5L72.2 126.3H62.6L61.7 123.3H71L70.1 120.3H57.2L56 115.8H60.2L59.3 112.8H57.5L56.6 109.8H61.4L60.2 105.3H53.9L53 102.3H64.4L63.5 99.3H52.1L50.9 94.8H54.2L52.4 88.8H41.9L41.3 87.3H42.8L41.9 84.3H54.8L53 78.3H44.9L44 75.3H46.4L44.9 69.3H62.9L61.1 63.3H33.2L32.6 61.8H95L94.1 58.8H60.5L59 54.3H80.3L78.5 48.3H76.1L74.3 42.3H63.8L62.9 39.3H33.8L32 33.3H34.1L33.2 30.3L32.9 28.8H31.4L30.8 27.3L29 21.3H27.5L26.9 19.8H24.5L23.3 15.3H1.4L0.8 13.8H17.9L17.3 11.7C17.3 11.5 17.3 11.4 17.3 11.4C17.1 11.2 17 11 17 10.8H20.6V9.59999C20.6 7.79999 21.3 6.19999 22.7 4.8H9.5C10.7 3.59999 12.2 2.99999 14 2.99999H69.8C72.8 2.99999 75.2 3.59999 77 4.8H90.2C92.6 6.19999 94.5 8.19999 95.9 10.8H92L92.9 12.9L93.2 13.8H76.1L76.4 15.3H98.3L99.5 19.8H101.9L102.2 21.3H104L105.5 27.3L105.8 28.8H107.6L107.9 30.3H107.6L108.5 33.3H106.7L108.2 39.3H137.3L137.9 42.3H149.9L150.8 39.3H152.3L153.8 33.3H154.7L155.3 30.3H156.2L156.5 28.8H148.7L149 27.3H156.5L158 21.3H152.3L152.6 19.8H129.5L130.7 15.3H141.2L141.5 13.8H121.7L122 12.9C122.2 12.5 122.3 12.1 122.3 11.7C122.3 11.3 122.4 11 122.6 10.8H158.6C159.6 8.19999 161.4 6.19999 164 4.8H175.1C177.3 3.59999 179.8 2.99999 182.6 2.99999H238.4C240.2 2.99999 241.7 3.59999 242.9 4.8H231.5C232.9 6.19999 233.6 7.79999 233.6 9.59999V10.8H197.9C197.7 11 197.6 11.3 197.6 11.7L197 13.8H216.8L216.5 15.3H205.7L204.5 19.8H227.6L227.3 21.3H232.7L230.9 27.3H223.7L223.4 28.8H231.2L230.9 30.3H230L229.1 33.3H228.2L226.4 39.3H224.9L224 42.3H221.9L220.4 48.3H257.6L255.8 54.3H235.1L233.6 58.8H231.8L231.2 61.8ZM132.8 54.3L133.7 58.8H160.1L161.3 54.3H182.3L183.8 48.3H152.3L153.8 54.3H132.8ZM174.5 69.3L176 63.3H147.8L148.1 61.8H106.1L106.4 63.3H134.3L136.1 69.3H117.8L119.3 75.3H116.9L117.8 78.3H147.5L148.1 75.3H149.3L150.8 69.3H174.5ZM144.8 88.8H143L143.3 87.3H113.9L114.2 88.8H124.7L126.2 94.8H122.9L124.1 99.3H135.2L136.1 102.3H124.7L125.6 105.3H131.9L132.8 109.8H128L128.9 112.8H130.4L130.7 113.7L131 112.8H138.8L139.7 109.8H134L134.9 105.3H143.3L143.9 102.3H142.7L143.3 99.3H138.2L139.1 94.8H143.3L144.8 88.8ZM441.545 117.3H480.845V123.3H469.145V129.3H452.345V133.5C452.345 134.3 452.245 135.1 452.045 135.9C452.045 136.7 452.045 137.5 452.045 138.3H452.945C452.945 139.1 452.845 139.9 452.645 140.7C452.645 141.3 452.645 142 452.645 142.8H449.945C449.945 143.2 449.945 143.7 449.945 144.3C449.945 144.9 449.845 145.4 449.645 145.8H422.045C421.845 146.2 421.745 146.7 421.745 147.3C421.745 147.9 421.645 148.4 421.445 148.8H421.745L420.845 153.3H442.445C442.245 154.1 442.045 154.9 441.845 155.7C441.645 156.3 441.445 157 441.245 157.8H444.545C444.345 158.8 444.045 159.8 443.645 160.8C443.245 161.8 442.845 162.8 442.445 163.8H446.345L445.145 166.8H440.645C440.245 167.8 439.745 168.8 439.145 169.8C438.745 170.8 438.245 171.8 437.645 172.8H449.645L447.845 175.8H450.245C449.845 176.2 449.445 176.7 449.045 177.3C448.845 177.9 448.545 178.4 448.145 178.8H431.045C430.845 179 430.645 179.2 430.445 179.4C430.245 179.6 430.045 179.9 429.845 180.3H449.345C448.545 181.5 447.745 182.5 446.945 183.3H442.145C441.545 184.1 440.845 184.9 440.045 185.7C439.445 186.3 438.745 187 437.945 187.8H448.445L443.645 192.3H440.345L438.545 193.8H429.545C427.745 195.2 425.645 196.7 423.245 198.3H421.445C420.245 199.1 418.945 199.9 417.545 200.7C416.345 201.3 415.045 202 413.645 202.8H407.945L404.645 204.3H396.845C393.045 206.1 389.345 207.6 385.745 208.8H378.245C372.845 210.6 367.145 212.1 361.145 213.3H355.445C353.845 213.5 352.145 213.7 350.345 213.9C348.745 214.3 347.145 214.6 345.545 214.8H353.645C350.445 215.2 347.045 215.5 343.445 215.7C340.045 215.9 336.545 216 332.945 216C329.145 216 325.445 215.9 321.845 215.7C318.445 215.5 315.045 215.2 311.645 214.8H303.845C302.045 214.6 300.345 214.3 298.745 213.9C297.145 213.7 295.545 213.5 293.945 213.3H299.645C293.645 212.1 287.945 210.6 282.545 208.8H290.045C286.445 207.6 282.845 206.1 279.245 204.3H287.345C286.745 203.9 286.145 203.6 285.545 203.4C285.145 203.2 284.745 203 284.345 202.8H290.345C288.945 202 287.645 201.3 286.445 200.7C285.245 199.9 284.045 199.1 282.845 198.3H284.945L278.945 193.8H287.945L286.145 192.3H289.445L284.945 187.8H274.745C273.945 187 273.245 186.3 272.645 185.7C272.045 184.9 271.445 184.1 270.845 183.3H275.645C275.445 182.9 275.145 182.4 274.745 181.8C274.345 181.2 273.945 180.7 273.545 180.3H254.045L253.145 178.8H270.245L268.445 175.8H266.345L264.545 172.8H252.545L249.845 166.8H254.345C254.145 166.4 253.945 165.9 253.745 165.3C253.545 164.7 253.345 164.2 253.145 163.8H249.245C248.845 162.8 248.445 161.8 248.045 160.8C247.845 159.8 247.545 158.8 247.145 157.8H243.845C243.645 157 243.445 156.3 243.245 155.7C243.045 154.9 242.845 154.1 242.645 153.3H240.245C240.045 152.5 239.845 151.8 239.645 151.2C239.445 150.4 239.245 149.6 239.045 148.8H222.245C222.045 148.4 221.945 147.9 221.945 147.3C221.945 146.7 221.845 146.2 221.645 145.8H249.245C249.245 145.4 249.245 144.9 249.245 144.3C249.245 143.7 249.145 143.2 248.945 142.8H245.645C245.445 142 245.245 141.3 245.045 140.7C245.045 139.9 245.045 139.1 245.045 138.3H257.045C257.045 137.5 257.045 136.8 257.045 136.2C257.045 135.4 256.945 134.6 256.745 133.8H268.145V129.3H234.245V123.3H259.445C259.245 122.3 259.145 121.3 259.145 120.3C259.145 119.3 259.145 118.3 259.145 117.3H263.045V114.3H238.145V111.3H240.845V106.8H248.945V103.8H244.745V102.3H243.245V96.3H243.545V90.3H244.445V88.8H245.345V87.3H239.645V85.8H245.945V84.3H244.445C244.645 83.5 244.745 82.8 244.745 82.2C244.745 81.4 244.745 80.6 244.745 79.8H247.145V78.3H242.345C242.345 77.3 242.345 76.3 242.345 75.3C242.545 74.3 242.645 73.3 242.645 72.3H244.745C244.945 71.9 245.045 71.4 245.045 70.8C245.045 70.2 245.145 69.7 245.345 69.3H246.845L247.745 64.8H237.545L238.445 60.3H247.445C247.845 59.3 248.145 58.3 248.345 57.3C248.545 56.1 248.845 55.1 249.245 54.3H252.845L253.445 52.8H251.345C251.545 52 251.745 51.3 251.945 50.7C252.345 49.9 252.645 49.1 252.845 48.3H252.545C252.945 47.5 253.245 46.8 253.445 46.2C253.845 45.4 254.245 44.6 254.645 43.8H253.745L256.445 39.3H258.845L259.745 37.8H257.045L260.345 33.3H278.345C278.945 32.7 279.345 32.2 279.545 31.8H262.745L265.445 28.8H263.945L268.445 24.3C269.645 23.3 270.845 22.3 272.045 21.3C273.245 20.1 274.545 19.1 275.945 18.3H276.245C277.845 17.3 279.445 16.3 281.045 15.3C282.645 14.1 284.345 13.1 286.145 12.3C287.145 11.7 288.145 11.2 289.145 10.8C290.345 10.2 291.445 9.69999 292.445 9.29999H293.045C297.245 7.49999 301.745 5.99999 306.545 4.8H306.245C312.245 3.2 318.545 1.99999 325.145 1.19999C331.945 0.399989 338.945 -1.14441e-05 346.145 -1.14441e-05C353.745 -1.14441e-05 360.845 0.399989 367.445 1.19999C374.245 1.99999 380.745 3.2 386.945 4.8C391.945 5.99999 396.645 7.49999 401.045 9.29999H400.445C401.645 9.69999 402.845 10.2 404.045 10.8C405.245 11.2 406.445 11.7 407.645 12.3C409.645 13.1 411.545 14.1 413.345 15.3C415.145 16.3 416.945 17.3 418.745 18.3H418.445C420.045 19.1 421.445 20.1 422.645 21.3C424.045 22.3 425.445 23.3 426.845 24.3H426.545C427.545 25.1 428.445 25.9 429.245 26.7C430.045 27.3 430.845 28 431.645 28.8H433.145L435.845 31.8H452.645L454.145 33.3H435.845C436.645 34.1 437.245 34.9 437.645 35.7C438.245 36.3 438.845 37 439.445 37.8H442.145L443.045 39.3H440.645C441.045 40.1 441.445 40.9 441.845 41.7C442.445 42.3 442.845 43 443.045 43.8H443.945C444.345 44.6 444.745 45.4 445.145 46.2C445.545 46.8 445.845 47.5 446.045 48.3H446.645C447.045 49.1 447.345 49.9 447.545 50.7C447.745 51.3 447.945 52 448.145 52.8H450.545C450.545 53 450.545 53.2 450.545 53.4C450.745 53.6 450.845 53.9 450.845 54.3H447.245C447.645 55.3 447.845 56.3 447.845 57.3C448.045 58.3 448.245 59.3 448.445 60.3H449.045C449.045 61.1 449.045 61.9 449.045 62.7C449.245 63.3 449.345 64 449.345 64.8H454.145C454.345 65.2 454.445 65.9 454.445 66.9C454.445 67.7 454.245 68.5 453.845 69.3H448.745C448.345 70.7 447.545 71.7 446.345 72.3H448.445C447.445 73.1 446.145 73.5 444.545 73.5H378.245C375.645 73.5 373.645 73.1 372.245 72.3H370.145C368.945 71.5 368.145 70.8 367.745 70.2L366.845 69.3H372.245C371.845 68.7 371.345 68 370.745 67.2C370.145 66.4 369.345 65.6 368.345 64.8H363.545C361.545 62.8 359.245 61.3 356.645 60.3H356.045C353.445 59.1 350.045 58.5 345.845 58.5C341.645 58.5 338.045 59.1 335.045 60.3H326.045C323.445 61.1 321.245 62.6 319.445 64.8H329.645C328.645 65.8 327.645 67.3 326.645 69.3H324.845C324.645 69.7 324.445 70.2 324.245 70.8C324.045 71.2 323.845 71.7 323.645 72.3H321.545C321.345 73.1 321.145 74.1 320.945 75.3C320.745 76.3 320.545 77.3 320.345 78.3H325.445C325.245 78.7 325.145 79.2 325.145 79.8H322.745V84.3H323.945V85.8H317.645V87.3H323.345V88.8H322.445V90.3H321.545V96.3H321.245V102.3H322.745V103.8H326.945V106.8H318.845V111.3H316.145V114.3H341.045V117.3H337.145C337.145 118.3 337.145 119.3 337.145 120.3C337.345 121.3 337.445 122.3 337.445 123.3H312.245V129.3H346.145V133.8H335.045C335.045 134.6 335.045 135.4 335.045 136.2C335.245 136.8 335.345 137.5 335.345 138.3H323.345C323.545 139.1 323.745 139.9 323.945 140.7C324.145 141.3 324.345 142 324.545 142.8H327.845C328.045 143.4 328.245 144 328.445 144.6C328.645 145 328.845 145.4 329.045 145.8H301.445C301.645 146.8 302.245 147.8 303.245 148.8H320.045C321.245 150.6 322.745 152.1 324.545 153.3H327.245C330.845 156.1 335.945 157.5 342.545 157.5C345.945 157.5 349.145 157.2 352.145 156.6C355.145 155.8 357.645 154.7 359.645 153.3H338.345C339.945 152.3 341.545 150.8 343.145 148.8H342.845C343.645 147.6 344.145 146.6 344.345 145.8H372.245L373.145 142.8H375.845C376.045 142 376.145 141.3 376.145 140.7C376.345 139.9 376.445 139.1 376.445 138.3H375.545L375.845 136.2V135.9H361.745C359.745 135.9 357.845 135.2 356.045 133.8C354.645 132.4 353.845 130.9 353.645 129.3H370.745C370.545 128.9 370.445 128.4 370.445 127.8V123.3H382.145V117.3H342.845V114.3H358.745V111.3H347.645V106.8H350.645V103.8H352.745V102.3H350.345V96.3H351.245V94.5C351.245 92.7 351.645 91.3 352.445 90.3H351.245C351.445 89.9 351.845 89.4 352.445 88.8H354.245C355.045 88 355.645 87.5 356.045 87.3H350.645C351.645 86.7 352.845 86.4 354.245 86.4H436.745C438.345 86.4 439.545 86.7 440.345 87.3H446.045C446.645 87.5 447.345 88 448.145 88.8H446.345C446.945 89.4 447.345 89.9 447.545 90.3H448.745C449.545 91.3 449.945 92.7 449.945 94.5V96.3H449.045V102.3H451.445V103.8H449.345V106.8H446.345V111.3H457.445V114.3H441.545V117.3Z" fill="#F41E1D"/>
</svg>
